<?xml version="1.0" encoding="utf-8"?>
<!-- Generator: Adobe Illustrator 15.0.0, SVG Export Plug-In  -->
<!DOCTYPE svg PUBLIC "-//W3C//DTD SVG 1.1//EN" "http://www.w3.org/Graphics/SVG/1.1/DTD/svg11.dtd" [
	<!ENTITY ns_flows "http://ns.adobe.com/Flows/1.0/">
]>
<svg version="1.1"
	 xmlns="http://www.w3.org/2000/svg" xmlns:xlink="http://www.w3.org/1999/xlink" xmlns:a="http://ns.adobe.com/AdobeSVGViewerExtensions/3.0/"
	 x="0px" y="0px" width="21px" height="21px" viewBox="0 0 21 21" overflow="visible" enable-background="new 0 0 21 21"
	 xml:space="preserve">
<defs>
</defs>
<path d="M7,10c1.656,0,3-1.342,3-3c0-1.656-1.344-3-3-3S4,5.344,4,7C4,8.658,5.344,10,7,10z M17,8V5h-2v3h-3v2h3v3h2v-3h3V8H17z
	 M7,12c-2,0-6,1-6,3v2h12v-2C13,13,9,12,7,12z"/>
<rect opacity="0" fill="#4387FD" width="21" height="21"/>
</svg>
